<svg viewBox="0 0 146 45" xmlns="http://www.w3.org/2000/svg">
        <g fill-rule="evenodd">
          <path d="M80.31 20.556C78.529 20.556 77.179 19.811 76.262 18.292L76.262 24.174C76.262 25.389 75.668 25.996 74.48 25.996L72.672 25.996 72.672 12.024C72.861 7.661 75.074 5.507 79.366 5.507 83.792 5.507 86.006 7.964 86.006 12.88 86.006 17.85 84.116 20.418 80.31 20.556zM79.258 8.627C77.206 8.627 76.235 10.091 76.262 13.045 76.369 15.862 77.368 17.27 79.312 17.27 81.255 17.27 82.254 15.862 82.335 13.045 82.335 10.091 81.309 8.627 79.258 8.627zM71.145 10.052C71.145 10.172 71.131 10.277 71.107 10.368L71.107 14.454C71.107 16.967 70.486 18.623 69.217 19.424 67.949 20.17 66.545 20.556 65.006 20.556 63.522 20.556 62.199 20.142 60.958 19.314 59.716 18.513 59.095 16.911 59.095 14.454L59.095 5.672 61.171 5.672C61.62 5.897 62.255 6.31 62.685 6.966L62.685 15.199C62.685 16.829 63.495 17.629 65.114 17.629 66.734 17.629 67.544 16.829 67.544 15.199L67.544 8.417 67.683 8.356C67.772 7.377 68.084 6.092 69.146 5.45 70.477 4.645 74.644 4.938 74.644 4.938 72.532 5.898 71.145 8.1 71.145 10.052zM54.952 17.888C55.79 18.976 57.311 20.596 59.649 21.813 59.649 21.813 53.85 22.849 51.652 19.257 51.388 18.825 51.196 18.455 51.06 18.134L50.834 18.068 49.102 14.964C48.643 14.136 48.184 13.722 47.726 13.722 47.348 13.804 47.159 14.053 47.159 14.439L47.159 19.769 43.569 19.769 43.569.991 45.431.991C46.376.991 47.159 1.82 47.159 2.786L47.159 10.877 51.585 5.686 55.904 5.686 50.965 11.098 54.952 17.888zM34.932 16.869C35.769 16.869 36.498 16.51 37.091 15.82 37.442 15.461 37.847 15.295 38.306 15.295L41.005 15.295C40.357 18.278 38.252 20.184 34.932 20.1 30.613 20.1 28.4 17.56 28.292 12.534 28.292 7.536 30.478 5.023 34.878 4.94 38.333 4.94 40.384 6.514 41.005 9.69L37.091 9.69C36.659 8.696 35.904 8.171 34.77 8.171 32.881 8.171 31.936 9.634 31.936 12.534 31.936 15.434 32.935 16.897 34.932 16.869zM22.111 17.627L22.111 5.161 23.974 5.161C25.134 5.161 25.701 5.741 25.701 6.928L25.701 15.826C26.019 18.711 28.159 20.279 28.159 20.279L24.15 19.938C23.074 19.392 22.466 18.613 22.111 17.627zM22.111.991L23.974.991C25.161.991 25.728 1.599 25.701 2.786L25.701 3.863 22.111 3.863 22.111.991zM15.283.991L17.145.991C18.09.991 18.873 1.82 18.873 2.786L18.873 19.769 15.283 19.769 15.283.991zM6.646 16.869C7.483 16.869 8.212 16.51 8.805 15.82 9.156 15.461 9.561 15.295 10.02 15.295L12.719 15.295C12.071 18.278 9.966 20.184 6.646 20.1 2.327 20.1.114 17.56.006 12.534.006 7.536 2.192 5.023 6.592 4.94 10.047 4.94 12.098 6.514 12.719 9.69L8.805 9.69C8.374 8.696 7.618 8.171 6.484 8.171 4.595 8.171 3.65 9.634 3.65 12.534 3.65 15.434 4.649 16.897 6.646 16.869z" transform="translate(60 11)"></path>
          <g>
            <path d="M21.2158405 44.3119266C29.9015231 44.3119266 37.3748972 39.2945553 40.74956 32.0820497 40.9877202 31.456015 41.1488578 30.8028333 41.2293578 30.1371585 41.1574909 26.2515255 39.0022085 24.3088921 38.1442783 23.6889286L37.7961257 23.5045872C37.7723715 32.3686607 30.3441484 39.5733558 21.2158405 39.5733558L21.1694806 39.5733558C12.0411727 39.5733558 4.61294961 32.3686607 4.58919545 23.5045872L4.24104283 23.6889286C3.38311256 24.3088921 1.22783022 26.2517696 1.1559633 30.1371585 1.23646325 30.8028333 1.39760088 31.456015 1.63576114 32.0820497 5.01042386 39.2945553 12.4836166 44.3119266 21.1694806 44.3119266L21.2158405 44.3119266zM21.0167649 6.65837044L41.9914181 20.8073394C42.057119 19.8295487 41.9017157 15.7074954 35.6707356 10.4099116L23.2855072.747993286C22.627294.28422524 21.8472681.0241150986 21.0424028 0L20.9575492 0C20.1527401.0241682927 19.3727817.284298048 18.7146267.748053887L6.3292164 10.4099116C.0982362372 15.7076772-.0571670323 19.8295487.00859449163 20.8073394L20.9832477 6.65837044 21.0167649 6.65837044z"></path>
          </g>
        </g>
      </svg>
